<?xml version="1.0"?>
<svg xmlns="http://www.w3.org/2000/svg" xmlns:xlink="http://www.w3.org/1999/xlink" height="855.0999755859375" version="1.1" width="1500.9399223327637" id="temp" viewBox="0 0 1500.9399223327637 855.0999755859375"><defs/><g id="Model" class="Model v1-1"><g class="Floor"><g id="Floor-1" class="Floorplan Floor-1"><g id="e28cc4ce-9494-4014-9427-ba6a5ee22214" fill="#ffffff" stroke="#000000" style="fill-opacity: 1; stroke-opacity: 1; stroke-width: 0.2;" class="Space Outdoor"><polygon points="225.03,221.25 63.02,221.25 63.02,841.10 225.03,841.10 225.03,221.25 "/><g transform="matrix(1,0,0,1,63.0187,221.2541)" class="Dimension"><g transform="matrix(1,0,0,1,0,0)" style="display: none;" class="Visual"><g id="mark1" fill="#000000" stroke="none" transform="matrix(1,0,0,1,81.0055,0)" style="fill-opacity: 1; pointer-events: visible;" class="DimensionMark"><polygon points="-5,5,0,0,5,5"/></g><g id="mark2" fill="#000000" stroke="none" transform="matrix(1,0,0,1,162.011,309.9218)" style="fill-opacity: 1; pointer-events: visible;" class="DimensionMark"><polygon points="-5,-5,0,0,-5,5"/></g><g id="mark3" fill="#000000" stroke="none" transform="matrix(1,0,0,1,81.0055,619.8435)" style="fill-opacity: 1; pointer-events: visible;" class="DimensionMark"><polygon points="-5,-5,0,0,5,-5"/></g><g id="mark4" fill="#000000" stroke="none" transform="matrix(1,0,0,1,0,309.9218)" style="fill-opacity: 1; pointer-events: visible;" class="DimensionMark"><polygon points="5,5,0,0,5,-5"/></g></g><g transform="matrix(1,0,0,1,81.0055,309.9217)" class="SpaceDimensionsLabel"><g id="NameLabel" style="display: block;" class="TextLabel NameLabel"><text x="0" y="0em" fill="#000000" stroke="none" style="font-family: Verdana; font-size: 33px; fill-opacity: 1; cursor: default;">ULKOTILA</text></g><g id="DimensionMeasureLabel" transform="matrix(1,0,0,1,-14.5625,40.5157)" style="display: none;" class="TextLabel DimensionMeasureLabel"><text x="0" y="0em" fill="#000000" stroke="none" style="font-family: Verdana; font-size: 33px; fill-opacity: 1; cursor: default;">5'4" x 20'4"</text><text x="0" y="0"/></g></g></g></g><g id="14cdcde6-043e-41b6-88e8-163be60ada35" fill="#ffffff" stroke="#ffffff" style="fill-opacity: 1; stroke-opacity: 1; stroke-width: 0.2;" class="Space Undefined"><polygon points="766.43,434.92 1059.51,650.66 1059.51,841.10 780.83,841.10 780.83,597.14 703.47,597.14 703.47,611.14 766.83,611.14 766.83,782.12 737.24,782.12 737.24,841.10 239.03,841.10 239.03,221.25 766.43,221.25 "/><g transform="matrix(1,0,0,1,239.0297,221.2541)" class="Dimension"><g transform="matrix(1,0,0,1,0,0)" style="display: none;" class="Visual"><g id="mark1" fill="#000000" stroke="none" transform="matrix(1,0,0,1,410.2423,0)" style="fill-opacity: 1; pointer-events: visible;" class="DimensionMark"><polygon points="-5,5,0,0,5,5"/></g><g id="mark2" fill="#000000" stroke="none" transform="matrix(1,0,0,1,763.4411,387.4147)" style="fill-opacity: 1; pointer-events: visible;" class="DimensionMark"><polygon points="-5,-5,0,0,-5,5"/></g><g id="mark3" fill="#000000" stroke="none" transform="matrix(1,0,0,1,410.2423,619.8435)" style="fill-opacity: 1; pointer-events: visible;" class="DimensionMark"><polygon points="-5,-5,0,0,5,-5"/></g><g id="mark4" fill="#000000" stroke="none" transform="matrix(1,0,0,1,0,387.4147)" style="fill-opacity: 1; pointer-events: visible;" class="DimensionMark"><polygon points="5,5,0,0,5,-5"/></g></g><g transform="matrix(1,0,0,1,249.3902,249.3902)" class="SpaceDimensionsLabel"><g id="NameLabel" style="display: block;" class="TextLabel NameLabel"><text x="0" y="0em" fill="#000000" stroke="none" style="font-family: Verdana; font-size: 33px; fill-opacity: 1; cursor: default;">UNDEFINED</text></g><g id="DimensionMeasureLabel" transform="matrix(1,0,0,1,-19.3125,39.5)" style="display: none;" class="TextLabel DimensionMeasureLabel"><text x="0" y="0em" fill="#000000" stroke="none" style="font-family: Verdana; font-size: 33px; fill-opacity: 1; cursor: default;">25'1" x 20'4"</text><text x="0" y="0"/></g></g></g></g><g id="0b66e3c9-365f-4e85-bbe3-8e3a93ed6fff" fill="#ffffff" stroke="#ffffff" style="fill-opacity: 1; stroke-opacity: 1; stroke-width: 0.2;" class="Space Undefined"><polygon points="1485.94,841.10 1073.51,841.10 1073.51,643.58 1035.00,615.00 1162.54,438.06 1220.39,438.06 1220.39,221.25 1485.94,221.25 "/><g transform="matrix(1,0,0,1,1074.7626,221.2541)" class="Dimension"><g transform="matrix(1,0,0,1,0,0)" style="display: none;" class="Visual"><g id="mark1" fill="#000000" stroke="none" transform="matrix(1,0,0,1,185.7063,0)" style="fill-opacity: 1; pointer-events: visible;" class="DimensionMark"><polygon points="-5,5,0,0,5,5"/></g><g id="mark2" fill="#000000" stroke="none" transform="matrix(1,0,0,1,411.1753,338.584)" style="fill-opacity: 1; pointer-events: visible;" class="DimensionMark"><polygon points="-5,-5,0,0,-5,5"/></g><g id="mark3" fill="#000000" stroke="none" transform="matrix(1,0,0,1,185.7063,619.8435)" style="fill-opacity: 1; pointer-events: visible;" class="DimensionMark"><polygon points="-5,-5,0,0,5,-5"/></g><g id="mark4" fill="#000000" stroke="none" transform="matrix(1,0,0,1,0,338.584)" style="fill-opacity: 1; pointer-events: visible;" class="DimensionMark"><polygon points="5,5,0,0,5,-5"/></g></g><g transform="matrix(1,0,0,1,205.0826,413.9468)" class="SpaceDimensionsLabel"><g id="NameLabel" style="display: block;" class="TextLabel NameLabel"><text x="0" y="0em" fill="#000000" stroke="none" style="font-family: Verdana; font-size: 33px; fill-opacity: 1; cursor: default;">UNDEFINED</text></g><g id="DimensionMeasureLabel" transform="matrix(1,0,0,1,-19.3125,39.5)" style="display: none;" class="TextLabel DimensionMeasureLabel"><text x="0" y="0em" fill="#000000" stroke="none" style="font-family: Verdana; font-size: 33px; fill-opacity: 1; cursor: default;">13'6" x 20'4"</text><text x="0" y="0"/></g></g></g></g><g id="38a3649e-aa7e-4b9c-9591-d17dbf932ac7" fill="#ffffff" stroke="#ffffff" style="fill-opacity: 1; stroke-opacity: 1; stroke-width: 0.2;" class="Space Undefined"><polygon points="1059.91,438.06 1145.60,438.06 1024.00,607.00 780.00,428.00 780.43,427.84 780.43,221.25 1059.91,221.25 "/><g transform="matrix(1,0,0,1,784.7983,221.2541)" class="Dimension"><g transform="matrix(1,0,0,1,0,0)" style="display: none;" class="Visual"><g id="mark1" fill="#000000" stroke="none" transform="matrix(1,0,0,1,199.4152,0)" style="fill-opacity: 1; pointer-events: visible;" class="DimensionMark"><polygon points="-5,5,0,0,5,5"/></g><g id="mark2" fill="#000000" stroke="none" transform="matrix(1,0,0,1,360.8041,210.266)" style="fill-opacity: 1; pointer-events: visible;" class="DimensionMark"><polygon points="-5,-5,0,0,-5,5"/></g><g id="mark3" fill="#000000" stroke="none" transform="matrix(1,0,0,1,199.4152,356.5583)" style="fill-opacity: 1; pointer-events: visible;" class="DimensionMark"><polygon points="-5,-5,0,0,5,-5"/></g><g id="mark4" fill="#000000" stroke="none" transform="matrix(1,0,0,1,0,210.266)" style="fill-opacity: 1; pointer-events: visible;" class="DimensionMark"><polygon points="5,5,0,0,5,-5"/></g></g><g transform="matrix(1,0,0,1,136.587,138.529)" class="SpaceDimensionsLabel"><g id="NameLabel" style="display: block;" class="TextLabel NameLabel"><text x="0" y="0em" fill="#000000" stroke="none" style="font-family: Verdana; font-size: 33px; fill-opacity: 1; cursor: default;">UNDEFINED</text></g><g id="DimensionMeasureLabel" transform="matrix(1,0,0,1,-8.8281,39.5)" style="display: none;" class="TextLabel DimensionMeasureLabel"><text x="0" y="0em" fill="#000000" stroke="none" style="font-family: Verdana; font-size: 33px; fill-opacity: 1; cursor: default;">11'10" x 11'8"</text><text x="0" y="0"/></g></g></g></g><g id="c2f3569c-f02f-427c-a87e-fa445fcdf421" fill="#ffffff" stroke="#ffffff" style="fill-opacity: 1; stroke-opacity: 1; stroke-width: 0.2;" class="Space Undefined"><polygon points="1206.39,424.06 1073.91,424.06 1073.91,221.25 1206.39,221.25 "/><g transform="matrix(1,0,0,1,1073.9067,221.2541)" class="Dimension"><g transform="matrix(1,0,0,1,0,0)" style="display: none;" class="Visual"><g id="mark1" fill="#000000" stroke="none" transform="matrix(1,0,0,1,66.2428,0)" style="fill-opacity: 1; pointer-events: visible;" class="DimensionMark"><polygon points="-5,5,0,0,5,5"/></g><g id="mark2" fill="#000000" stroke="none" transform="matrix(1,0,0,1,132.4855,101.4033)" style="fill-opacity: 1; pointer-events: visible;" class="DimensionMark"><polygon points="-5,-5,0,0,-5,5"/></g><g id="mark3" fill="#000000" stroke="none" transform="matrix(1,0,0,1,66.2428,202.8067)" style="fill-opacity: 1; pointer-events: visible;" class="DimensionMark"><polygon points="-5,-5,0,0,5,-5"/></g><g id="mark4" fill="#000000" stroke="none" transform="matrix(1,0,0,1,0,101.4033)" style="fill-opacity: 1; pointer-events: visible;" class="DimensionMark"><polygon points="5,5,0,0,5,-5"/></g></g><g transform="matrix(1,0,0,1,66.2427,66.2428)" class="SpaceDimensionsLabel"><g id="NameLabel" style="display: block;" class="TextLabel NameLabel"><text x="0" y="0em" fill="#000000" stroke="none" style="font-family: Verdana; font-size: 33px; fill-opacity: 1; cursor: default;">UNDEFINED</text></g><g id="DimensionMeasureLabel" transform="matrix(1,0,0,1,12.1406,39.5)" style="display: none;" class="TextLabel DimensionMeasureLabel"><text x="0" y="0em" fill="#000000" stroke="none" style="font-family: Verdana; font-size: 33px; fill-opacity: 1; cursor: default;">4'4" x 6'8"</text><text x="0" y="0"/></g></g></g></g><g id="Wall" fill="#000000" stroke="#000000" style="fill-opacity: 1; stroke-opacity: 1; stroke-width: 0.2;" class="Wall External"><polygon points="1500.94,855.10 1500.94,207.25 1485.94,221.25 1485.94,841.10 "/><g id="Window" fill="#f0f0ff" stroke="#000000" style="fill-opacity: 1; stroke-width: 1; stroke-opacity: 1;" class="Window Regular"><polygon points="1500.94,525.29 1500.94,332.93 1485.94,332.93 1485.94,525.29 "/><g id="Glass" class="Glass"><polygon points="1500.94,525.29 1500.94,332.93 1485.94,332.93 1485.94,525.29 "/></g><g id="Panel" class="Panel"><line x1="1493.437866461536" x2="1493.437866461536" y1="517.794999940911" y2="340.427351853207"/><line x1="1500.937866461536" x2="1485.937866461536" y1="517.794999940911" y2="517.794999940911"/><line x1="1500.937866461536" x2="1485.937866461536" y1="340.427351853207" y2="340.427351853207"/></g></g><g id="Window" fill="#f0f0ff" stroke="#000000" style="fill-opacity: 1; stroke-width: 1; stroke-opacity: 1;" class="Window Regular"><polygon points="1500.94,789.40 1500.94,596.03 1485.94,596.03 1485.94,789.40 "/><g id="Glass" class="Glass"><polygon points="1500.94,789.40 1500.94,596.03 1485.94,596.03 1485.94,789.40 "/></g><g id="Panel" class="Panel"><line x1="1493.437866461536" x2="1493.437866461536" y1="781.9022350321519" y2="603.5265267259887"/><line x1="1500.937866461536" x2="1485.937866461536" y1="781.9022350321519" y2="781.9022350321519"/><line x1="1500.937866461536" x2="1485.937866461536" y1="603.5265267259887" y2="603.5265267259887"/></g></g></g><g id="Wall" fill="#000000" stroke="#000000" style="fill-opacity: 1; stroke-opacity: 1; stroke-width: 0.2;" class="Wall External"><polygon points="239.03,841.10 239.03,221.25 225.03,207.25 225.03,855.10 "/><g id="Window" fill="#f0f0ff" stroke="#000000" style="fill-opacity: 1; stroke-width: 1; stroke-opacity: 1;" class="Window Regular"><polygon points="239.03,840.87 239.03,788.90 225.03,788.90 225.03,840.87 "/><g id="Glass" class="Glass"><polygon points="239.03,840.87 239.03,788.90 225.03,788.90 225.03,840.87 "/></g><g id="Panel" class="Panel"><line x1="232.02966317951893" x2="232.02966317951896" y1="833.3694720476283" y2="796.3995663152452"/><line x1="239.02966317951893" x2="225.02966317951893" y1="833.3694720476283" y2="833.3694720476283"/><line x1="239.029663179519" x2="225.029663179519" y1="796.3995663152452" y2="796.3995663152452"/></g></g><g id="Window" fill="#f0f0ff" stroke="#000000" style="fill-opacity: 1; stroke-width: 1; stroke-opacity: 1;" class="Window Regular"><polygon points="239.03,778.01 239.03,607.50 225.03,607.50 225.03,778.01 "/><g id="Glass" class="Glass"><polygon points="239.03,778.01 239.03,607.50 225.03,607.50 225.03,778.01 "/></g><g id="Panel" class="Panel"><line x1="232.029663179519" x2="232.02966317951913" y1="770.5106336856031" y2="614.9998451205079"/><line x1="239.029663179519" x2="225.029663179519" y1="770.5106336856031" y2="770.5106336856031"/><line x1="239.02966317951916" x2="225.02966317951916" y1="614.9998451205079" y2="614.9998451205079"/></g></g><g id="Door" fill="#ffffff" stroke="#000000" style="fill-opacity: 1; stroke-width: 1; stroke-opacity: 1;" class="Door Swing Opposite"><polygon points="239.03,595.86 239.03,512.94 225.03,512.94 225.03,595.86 "/><g id="Threshold" class="Threshold"><polygon points="239.03,595.86 239.03,512.94 225.03,512.94 225.03,595.86 "/></g><g id="Panel" fill="none" style="" class="Panel Right Negative"><g id="PanelArea" fill="none" stroke="none" style="" class="PanelArea"><polygon points="239.03,595.86 239.03,512.94 225.03,512.94 225.03,595.86 "/></g><path d="M239.03,512.94 q82.92,0.00 82.92,82.92 l-82.92,0.00Z"/></g><g id="Panel" fill="none" style="" class="Panel Left Positive"><g id="PanelArea" fill="none" stroke="none" style="" class="PanelArea"><polygon points="239.03,595.86 239.03,512.94 225.03,512.94 225.03,595.86 "/></g><path d="M225.03,512.94 q-82.92,0.00 -82.92,82.92 l82.92,0.00Z"/></g></g><g id="Window" fill="#f0f0ff" stroke="#000000" style="fill-opacity: 1; stroke-width: 1; stroke-opacity: 1;" class="Window Regular"><polygon points="239.03,505.02 239.03,287.09 225.03,287.09 225.03,505.02 "/><g id="Glass" class="Glass"><polygon points="239.03,505.02 239.03,287.09 225.03,287.09 225.03,505.02 "/></g><g id="Panel" class="Panel"><line x1="232.02966317951925" x2="232.02966317951945" y1="497.52355057947955" y2="294.59199423329426"/><line x1="239.02966317951925" x2="225.02966317951925" y1="497.52355057947955" y2="497.52355057947955"/><line x1="239.02966317951945" x2="225.02966317951945" y1="294.59199423329426" y2="294.59199423329426"/></g></g><g id="Window" fill="#f0f0ff" stroke="#000000" style="fill-opacity: 1; stroke-width: 1; stroke-opacity: 1;" class="Window Regular"><polygon points="239.03,277.06 239.03,223.53 225.03,223.53 225.03,277.06 "/><g id="Glass" class="Glass"><polygon points="239.03,277.06 239.03,223.53 225.03,223.53 225.03,277.06 "/></g><g id="Panel" class="Panel"><line x1="232.02966317951945" x2="232.02966317951947" y1="269.5556726612905" y2="231.03334179512512"/><line x1="239.02966317951945" x2="225.02966317951945" y1="269.5556726612905" y2="269.5556726612905"/><line x1="239.0296631795195" x2="225.0296631795195" y1="231.03334179512512" y2="231.03334179512512"/></g></g></g><g id="Wall" fill="#000000" stroke="#000000" style="fill-opacity: 1; stroke-opacity: 1; stroke-width: 0.2;" class="Wall "><polygon points="49.02,855.10 225.03,855.10 225.03,841.10 49.02,841.10 "/></g><g id="Wall" fill="#000000" stroke="#000000" style="fill-opacity: 1; stroke-opacity: 1; stroke-width: 0.2;" class="Wall External"><polygon points="225.03,855.10 1500.94,855.10 1485.94,841.10 239.03,841.10 "/><g id="Door" fill="#ffffff" stroke="#000000" style="fill-opacity: 1; stroke-width: 1; stroke-opacity: 1;" class="Door Swing Beside"><polygon points="968.29,855.10 1052.99,855.10 1052.99,841.10 968.29,841.10 "/><g id="Threshold" class="Threshold"><polygon points="968.29,855.10 1052.99,855.10 1052.99,841.10 968.29,841.10 "/></g><g id="Panel" fill="none" style="" class="Panel Right Positive"><g id="PanelArea" fill="none" stroke="none" style="" class="PanelArea"><polygon points="968.29,855.10 1052.99,855.10 1052.99,841.10 968.29,841.10 "/></g><path d="M968.29,841.10 q0.00,-84.69 84.69,-84.69 l0.00,84.69Z"/></g></g></g><g id="Wall" fill="#000000" stroke="#000000" style="fill-opacity: 1; stroke-opacity: 1; stroke-width: 0.2;" class="Wall External"><polygon points="1500.94,207.25 225.03,207.25 239.03,221.25 1485.94,221.25 "/></g><g id="Wall" fill="#000000" stroke="#000000" style="fill-opacity: 1; stroke-opacity: 1; stroke-width: 0.2;" class="Wall "><polygon points="239.03,207.25 49.02,207.25 49.02,221.25 239.03,221.25 "/></g><g id="Railing" fill="#ffffff" stroke="#000000" style="fill-opacity: 1; stroke-opacity: 1; stroke-width: 0.2;" class="Railing"><polygon points="49.02,221.25 49.02,841.10 63.02,841.10 63.02,221.25 " style="stroke-dasharray: 0;"/></g><g id="Wall" fill="#000000" stroke="#000000" style="fill-opacity: 1; stroke-opacity: 1; stroke-width: 0.2;" class="Wall"><polygon points="766.43,207.25 766.43,434.92 780.43,427.84 780.43,207.25 "/></g><g id="Wall" fill="#000000" stroke="#000000" style="fill-opacity: 1; stroke-opacity: 1; stroke-width: 0.2;" class="Wall"><polygon points="766.43,434.92 1059.51,650.66 1073.51,643.58 780.43,427.84 "/><g id="Door" fill="#ffffff" stroke="#000000" style="fill-opacity: 1; stroke-width: 1; stroke-opacity: 1;" class="Door Swing Beside"><polygon points="842.07,490.59 893.58,528.52 901.88,517.24 850.37,479.32 "/><g id="Threshold" class="Threshold"><polygon points="842.07,490.59 893.58,528.52 901.88,517.24 850.37,479.32 "/></g><g id="Panel" fill="none" style="" class="Panel Right Negative"><g id="PanelArea" fill="none" stroke="none" style="" class="PanelArea"><polygon points="842.07,490.59 893.58,528.52 901.88,517.24 850.37,479.32 "/></g><path d="M893.58,528.52 q-37.92,51.52 -89.44,13.59 l37.92,-51.52Z"/></g></g></g><g id="Wall" fill="#000000" stroke="#000000" style="fill-opacity: 1; stroke-opacity: 1; stroke-width: 0.2;" class="Wall"><polygon points="1059.51,650.66 1059.51,855.10 1073.51,855.10 1073.51,643.58 "/><g id="Door" fill="#ffffff" stroke="#000000" style="fill-opacity: 1; stroke-width: 1; stroke-opacity: 1;" class="Door Swing Beside"><polygon points="1059.51,656.43 1059.51,729.42 1073.51,729.42 1073.51,656.43 "/><g id="Threshold" class="Threshold"><polygon points="1059.51,656.43 1059.51,729.42 1073.51,729.42 1073.51,656.43 "/></g><g id="Panel" fill="none" style="" class="Panel Right Negative"><g id="PanelArea" fill="none" stroke="none" style="" class="PanelArea"><polygon points="1059.51,656.43 1059.51,729.42 1073.51,729.42 1073.51,656.43 "/></g><path d="M1059.51,729.42 q-72.99,0.00 -72.99,-72.99 l72.99,0.00Z"/></g></g></g><g id="Wall" fill="#000000" stroke="#000000" style="fill-opacity: 1; stroke-opacity: 1; stroke-width: 0.2;" class="Wall"><polygon points="1059.91,207.25 1059.91,438.06 1073.91,424.06 1073.91,207.25 "/><g id="Door" fill="#ffffff" stroke="#000000" style="fill-opacity: 1; stroke-width: 1; stroke-opacity: 1;" class="Door Swing Beside"><polygon points="1059.91,321.64 1059.91,385.51 1073.91,385.51 1073.91,321.64 "/><g id="Threshold" class="Threshold"><polygon points="1059.91,321.64 1059.91,385.51 1073.91,385.51 1073.91,321.64 "/></g><g id="Panel" fill="none" style="" class="Panel Right Negative"><g id="PanelArea" fill="none" stroke="none" style="" class="PanelArea"><polygon points="1059.91,321.64 1059.91,385.51 1073.91,385.51 1073.91,321.64 "/></g><path d="M1059.91,385.51 q-63.88,0.00 -63.88,-63.88 l63.88,0.00Z"/></g></g></g><g id="Wall" fill="#000000" stroke="#000000" style="fill-opacity: 1; stroke-opacity: 1; stroke-width: 0.2;" class="Wall"><polygon points="1059.91,438.06 1220.39,438.06 1206.39,424.06 1073.91,424.06 "/><g id="Window" fill="#f0f0ff" stroke="#000000" style="fill-opacity: 1; stroke-width: 1; stroke-opacity: 1;" class="Window Regular"><polygon points="1089.25,438.06 1123.60,438.06 1123.60,424.06 1089.25,424.06 "/><g id="Glass" class="Glass"><polygon points="1089.25,438.06 1123.60,438.06 1123.60,424.06 1089.25,424.06 "/></g><g id="Panel" class="Panel"><line x1="1096.748847518749" x2="1116.100088893005" y1="431.0607403829627" y2="431.0607403829627"/><line x1="1096.748847518749" x2="1096.748847518749" y1="438.0607403829627" y2="424.0607403829627"/><line x1="1116.100088893005" x2="1116.100088893005" y1="438.0607403829627" y2="424.0607403829627"/></g></g></g><g id="Wall" fill="#000000" stroke="#000000" style="fill-opacity: 1; stroke-opacity: 1; stroke-width: 0.2;" class="Wall"><polygon points="1220.39,438.06 1220.39,207.25 1206.39,207.25 1206.39,424.06 "/></g><g id="Wall" fill="#000000" stroke="#000000" style="fill-opacity: 1; stroke-opacity: 1; stroke-width: 0.2;" class="Wall"><polygon points="1162.54,438.06 1034.96,615.20 1023.60,607.02 1151.18,429.88 "/></g><g id="Wall" fill="#000000" stroke="#000000" style="fill-opacity: 1; stroke-opacity: 1; stroke-width: 0.2;" class="Wall"><polygon points="703.47,597.14 780.83,597.14 766.83,611.14 703.47,611.14 "/></g><g id="Wall" fill="#000000" stroke="#000000" style="fill-opacity: 1; stroke-opacity: 1; stroke-width: 0.2;" class="Wall"><polygon points="780.83,597.14 780.83,855.10 766.83,855.10 766.83,611.14 "/></g><g id="Wall" fill="#000000" stroke="#000000" style="fill-opacity: 1; stroke-opacity: 1; stroke-width: 0.2;" class="Wall"><polygon points="766.83,855.10 766.83,782.12 737.24,782.12 737.24,855.10 "/></g><g class="FixedFurniture ShowerScreen" fill="#ffffff" stroke="#000000" transform="matrix(1,0,0,3.6033,761.8523,278.5409)" style="fill-opacity: 1; stroke-opacity: 1; stroke-width: 1;">
        <g class="BoundaryPolygon">
            <polygon points="0,0 2.5,0 2.5,60 0,60"/>
        </g>
	    <g class="InnerPolygon" stroke-linejoin="round"> 
			<rect width="2.5" height="60"/>
	    </g> 
        <desc>Width:2.5 Height:180 Depth:60 Elevation:135</desc>
    </g><g class="FixedFurniture ElectricalAppliance Refrigerator" fill="#ffffff" stroke="#000000" transform="matrix(0,1,-1,0,766.6533,611.1385)" style="fill-opacity: 1; stroke-opacity: 1; stroke-width: 1;">
        <g class="BoundaryPolygon">
            <polygon points="0,0 60,0 60,60 0,60"/>
        </g>
        <g class="electricitySign" fill="none" style="display: block;">
            <path d="M0,0,30,37.1v-18L60,56.3"/>
        </g>
        <g class="Doors">
            <rect y="56" width="60" height="4"/>
        </g>
        <g class="Direction" fill-opacity="0.9" style="display: none;">
            <polygon points="32.009 55.197 32.009 44.581 29 44.581 29 55.197 25.197 55.197 30.5 60 35.803 55.197 32.009 55.197" fill="#444444"/>
        </g> 
        <g class="Name" fill-opacity="0.9" style="display: none;">
            <text transform="translate(3 12)" font-size="12" font-family="Verdana, Sans-Serif">REF</text>
        </g>
        <desc>Width:60 Height:170 Depth:60 Elevation:0</desc>
    </g><g transform="matrix(1,0,0,1,1220.3922,438.0607)" class="FixedFurniture Closet" fill="#ffffff" stroke="#000000" style="fill-opacity: 1; stroke-opacity: 1; stroke-width: 1;"><desc>Width:120 Height:200 Depth:60 Elevation:0</desc><g class="BoundaryPolygon"><polygon points="0.00,0.00 -57.85,0.00 -185.43,177.14 -146.88,205.52 "/></g></g><g transform="matrix(1,0,0,1,1063.1098,576.2338)" class="FixedFurniture Closet" fill="#ffffff" stroke="#000000" style="fill-opacity: 1; stroke-opacity: 1; stroke-width: 1;"><desc>Width:120 Height:200 Depth:60 Elevation:0</desc><g class="BoundaryPolygon"><polygon points="0.00,0.00 38.84,27.82 "/></g></g><g transform="matrix(1,0,0,1,1092.5271,534.9336)" class="FixedFurniture Closet" fill="#ffffff" stroke="#000000" style="fill-opacity: 1; stroke-opacity: 1; stroke-width: 1;"><desc>Width:120 Height:200 Depth:60 Elevation:0</desc><g class="BoundaryPolygon"><polygon points="0.00,0.00 38.84,27.68 "/></g></g><g transform="matrix(1,0,0,1,1122.2342,494.2131)" class="FixedFurniture Closet" fill="#ffffff" stroke="#000000" style="fill-opacity: 1; stroke-opacity: 1; stroke-width: 1;"><desc>Width:120 Height:200 Depth:60 Elevation:0</desc><g class="BoundaryPolygon"><polygon points="0.00,0.00 38.55,27.24 "/></g></g><g transform="matrix(1,0,0,1,1152.0863,452.6231)" class="FixedFurniture Closet" fill="#ffffff" stroke="#000000" style="fill-opacity: 1; stroke-opacity: 1; stroke-width: 1;"><desc>Width:120 Height:200 Depth:60 Elevation:0</desc><g class="BoundaryPolygon"><polygon points="0.00,0.00 38.55,27.24 "/></g></g><g class="FixedFurniture SaunaBenchLow" fill="#ffffff" stroke="#000000" transform="matrix(0.7071,0.7071,-0.7071,0.7071,1148.4385,247.447)" style="fill-opacity: 1; stroke-opacity: 1; stroke-width: 1;">
        <g class="BoundaryPolygon">
            <polygon points="0.00,0.00 43.49,0.00 43.49,40.00 0.00,40.00 "/>
        </g>
        <g class="Bench" stroke="#9a9a9a" stroke-width="0.5">
            <line x1="0" y1="4" x2="43.48781365887509" y2="4"/>
            <line x1="0" y1="8" x2="43.48781365887509" y2="8"/>
            <line x1="0" y1="12" x2="43.48781365887509" y2="12"/>
            <line x1="0" y1="16" x2="43.48781365887509" y2="16"/>
            <line x1="0" y1="20" x2="43.48781365887509" y2="20"/>
            <line x1="0" y1="24" x2="43.48781365887509" y2="24"/>
            <line x1="0" y1="28" x2="43.48781365887509" y2="28"/>
            <line x1="0" y1="32" x2="43.48781365887509" y2="32"/>
            <line x1="0" y1="36" x2="43.48781365887509" y2="36"/>
        </g>
        <g class="Direction" fill-opacity="0.9" style="display: none;">
            <polygon points="22.49,34.66 22.49,24.04 19.48,24.04 19.48,34.66 15.68,34.66 20.98,39.96 26.28,34.66 22.49,34.66 " fill="#444444"/>
        </g> 
        <g class="Name" fill-opacity="0.9" style="display: none;">
            <text transform="translate(3 12)" font-size="12" font-family="Verdana, Sans-Serif">SB_LOW</text>
        </g>
        <desc>Width:91 Height:5 Depth:40 Elevation:30</desc>
    </g><g class="FixedFurniture SaunaBenchHigh" fill="#ffffff" stroke="#000000" transform="matrix(1,0,0,1,1073.9067,221.301)" style="fill-opacity: 1; stroke-opacity: 1; stroke-width: 1;">
        <g class="BoundaryPolygon">
            <polygon points="0.00,0.00 132.29,0.00 132.29,54.50 0.00,54.50 "/> 
        </g>
        <g class="Bench" stroke="#9a9a9a" stroke-width="0.5">
            <line x1="0" y1="3.633425646048052" x2="132.28790417615224" y2="3.633425646048052"/>
            <line x1="0" y1="7.266851292096104" x2="132.28790417615224" y2="7.266851292096104"/>
            <line x1="0" y1="10.90027693814415" x2="132.28790417615224" y2="10.90027693814415"/>
            <line x1="0" y1="14.533702584192207" x2="132.28790417615224" y2="14.533702584192207"/>
            <line x1="0" y1="18.16712823024025" x2="132.28790417615224" y2="18.16712823024025"/>
            <line x1="0" y1="21.8005538762883" x2="132.28790417615224" y2="21.8005538762883"/>
            <line x1="0" y1="25.433979522336365" x2="132.28790417615224" y2="25.433979522336365"/>
            <line x1="0" y1="29.067405168384415" x2="132.28790417615224" y2="29.067405168384415"/>
            <line x1="0" y1="32.70083081443245" x2="132.28790417615224" y2="32.70083081443245"/>
            <line x1="0" y1="36.3342564604805" x2="132.28790417615224" y2="36.3342564604805"/>
            <line x1="0" y1="39.967682106528585" x2="132.28790417615224" y2="39.967682106528585"/>
            <line x1="0" y1="43.6011077525766" x2="132.28790417615224" y2="43.6011077525766"/>
            <line x1="0" y1="47.23453339862467" x2="132.28790417615224" y2="47.23453339862467"/>
            <line x1="0" y1="50.86795904467273" x2="132.28790417615224" y2="50.86795904467273"/>
        </g>
         <g class="Direction" fill-opacity="0.9" style="display: none;">
            <polygon points="68.22,49.65 68.22,39.03 65.22,39.03 65.22,49.65 61.41,49.65 66.72,54.95 72.02,49.65 68.22,49.65 " fill="#444444"/>
        </g> 
        <g class="Name" fill-opacity="0.9" style="display: none;">
            <text transform="translate(3 12)" font-size="12" font-family="Verdana, Sans-Serif">SB_HIGH</text>
        </g>
        <desc>Width:185 Height:5 Depth:60 Elevation:105</desc>
    </g><g class="FixedFurniture SaunaBenchHigh" fill="#ffffff" stroke="#000000" transform="matrix(0,1,-1,0,1206.3922,275.8023)" style="fill-opacity: 1; stroke-opacity: 1; stroke-width: 1;">
        <g class="BoundaryPolygon">
            <polygon points="0.00,0.00 96.88,0.00 96.88,54.50 0.00,54.50 "/> 
        </g>
        <g class="Bench" stroke="#9a9a9a" stroke-width="0.5">
            <line x1="0" y1="3.633425646048052" x2="96.87888515271926" y2="3.633425646048052"/>
            <line x1="0" y1="7.266851292096104" x2="96.87888515271926" y2="7.266851292096104"/>
            <line x1="0" y1="10.90027693814415" x2="96.87888515271926" y2="10.90027693814415"/>
            <line x1="0" y1="14.533702584192207" x2="96.87888515271926" y2="14.533702584192207"/>
            <line x1="0" y1="18.16712823024025" x2="96.87888515271926" y2="18.16712823024025"/>
            <line x1="0" y1="21.8005538762883" x2="96.87888515271926" y2="21.8005538762883"/>
            <line x1="0" y1="25.433979522336365" x2="96.87888515271926" y2="25.433979522336365"/>
            <line x1="0" y1="29.067405168384415" x2="96.87888515271926" y2="29.067405168384415"/>
            <line x1="0" y1="32.70083081443245" x2="96.87888515271926" y2="32.70083081443245"/>
            <line x1="0" y1="36.3342564604805" x2="96.87888515271926" y2="36.3342564604805"/>
            <line x1="0" y1="39.967682106528585" x2="96.87888515271926" y2="39.967682106528585"/>
            <line x1="0" y1="43.6011077525766" x2="96.87888515271926" y2="43.6011077525766"/>
            <line x1="0" y1="47.23453339862467" x2="96.87888515271926" y2="47.23453339862467"/>
            <line x1="0" y1="50.86795904467273" x2="96.87888515271926" y2="50.86795904467273"/>
        </g>
         <g class="Direction" fill-opacity="0.9" style="display: none;">
            <polygon points="49.96,49.65 49.96,39.03 46.96,39.03 46.96,49.65 43.15,49.65 48.46,54.95 53.76,49.65 49.96,49.65 " fill="#444444"/>
        </g> 
        <g class="Name" fill-opacity="0.9" style="display: none;">
            <text transform="translate(3 12)" font-size="12" font-family="Verdana, Sans-Serif">SB_HIGH</text>
        </g>
        <desc>Width:185 Height:5 Depth:60 Elevation:105</desc>
    </g><g class="FixedFurniture ElectricalAppliance SaunaStove" fill="#ffffff" stroke="#000000" transform="matrix(-0.855,0,0,-0.8165,1192.479,419.8067)" style="fill-opacity: 1; stroke-opacity: 1; stroke-width: 1;"> 
	   <g class="BoundaryPolygon"> 
		    <polygon points="0,0 60,0 60,35 0,35"/>
		</g>
	    <g class="electricitySign" fill="none">
		    <polyline points="0 35 39.7 17.5 21.4 17.5 60 0"/>
		</g>
        <g class="Direction" fill-opacity="0.9" style="display: none;">
            <polygon points="31.509 29.697 31.509 19.081 28.5 19.081 28.5 29.697 24.697 29.697 30 35 35.303 29.697 31.509 29.697" fill="#444444"/>
        </g> 
        <g class="Name" fill-opacity="0.9" style="display: none;">
            <text transform="translate(3 12)" font-size="12" font-family="Verdana, Sans-Serif">SS</text>
        </g>
        <desc>Width:60 Height:60 Depth:35 Elevation:20</desc>
	</g><g class="FixedFurniture Closet" fill="#ffffff" stroke="#000000" transform="matrix(1,0,0,1,780.4316,221.3479)" style="fill-opacity: 1; stroke-opacity: 1; stroke-width: 1;">
        <g class="BoundaryPolygon">
            <polygon points="0.00,0.00 56.56,0.00 56.56,60.00 0.00,60.00 "/>
        </g>
        <g class="Direction" fill-opacity="0.9" style="display: none;">
            <polygon points="29.70,54.70 29.70,44.08 26.70,44.08 26.70,54.70 22.89,54.70 28.20,60.00 33.50,54.70 29.70,54.70 " fill="#444444"/>
        </g> 
        <g class="Name" fill-opacity="0.9" style="display: none;">
            <text transform="translate(3 12)" font-size="12" font-family="Verdana, Sans-Serif">CL</text>
        </g>
        <desc>Width:60 Height:200 Depth:60 Elevation:0</desc>
     </g><g class="FixedFurniture BaseCabinet" fill="#ffffff" stroke="#000000" transform="matrix(1,0,0,1,837.1367,221.3009)" style="fill-opacity: 1; stroke-opacity: 1; stroke-width: 1;">
        <g class="BoundaryPolygon">
            <polygon points="0.00,0.00 222.77,0.00 222.77,60.00 0.00,60.00 "/>
        </g>
        <g class="Direction" fill-opacity="0.9" style="display: none;">
            <polygon points="118.84,55.20 118.84,44.58 115.83,44.58 115.83,55.20 112.03,55.20 117.33,60.00 122.64,55.20 118.84,55.20 " fill="#444444"/>
        </g> 
        <g class="Name" fill-opacity="0.9" style="display: none;">
            <text transform="translate(3 12)" font-size="12" font-family="Verdana, Sans-Serif">CB</text>
        </g>
        <desc>Width:60 Height:90 Depth:60 Elevation:0</desc>
    </g><g class="FixedFurniture Sink" fill="#ffffff" stroke="#000000" transform="matrix(1,0,0,1,867.4257,224.8644)" style="fill-opacity: 1; stroke-opacity: 1; stroke-width: 1;">
        <g class="BoundaryPolygon" fill="none" stroke="none">
            <polygon points="0.00,0.00 49.81,0.00 49.81,51.30 0.00,51.30 "/>
        </g>
        <g class="InnerPolygon">
            <polygon points="4.15,9.70 45.66,9.70 45.66,46.77 4.15,46.77 "/>
        </g>
        <g class="OuterDrain" stroke-width="0.8">
            <circle cx="24.904591968690866" cy="27.532148368160758" r="3.5"/>
        </g>
        <g class="InnerDrain" stroke-width="0.8">
            <circle cx="24.904591968690866" cy="27.532148368160758" r="2"/>
        </g>
        <g class="Faucet">
            <polygon points="22.41,4.28 28.41,4.28 28.41,18.28 22.41,18.28 "/>
        </g>
        <g class="Direction" fill-opacity="0.9" style="display: none;">
            <polygon points="26.57,47.20 26.57,36.58 23.56,36.58 23.56,47.20 19.76,47.20 25.06,52.00 30.37,47.20 26.57,47.20 " fill="#444444"/>
        </g> 
        <g class="Name" fill-opacity="0.9" style="display: none;">
            <text transform="translate(3 12)" font-size="12" font-family="Verdana, Sans-Serif">SINK</text>
        </g>
        <desc>Width:60 Height:90 Depth:60 Elevation:0</desc>
    </g><g class="FixedFurniture WallCabinet" fill="#ffffff" stroke="#000000" transform="matrix(1,0,0,1,919.8667,221.3009)" style="fill-opacity: 0.7; stroke-opacity: 1; stroke-width: 1.5;">	
        <g class="BoundaryPolygon">
            <polygon points="0.00,0.00 140.04,0.00 140.04,32.12 0.00,32.12 "/>
        </g>
        <g class="Direction" fill-opacity="0.9" style="display: none;">
            <polygon points="74.71,26.98 74.71,16.36 71.70,16.36 71.70,26.98 67.90,26.98 73.20,31.78 78.50,26.98 74.71,26.98 " fill="#444444"/>
        </g> 
        <g class="Name" fill-opacity="0.9" style="display: none;">
            <text transform="translate(3 12)" font-size="12" font-family="Verdana, Sans-Serif">UC</text>
        </g>
        <desc>Width:60 Height:60 Depth:30 Elevation:140</desc>
    </g><g class="FixedFurniture Jacuzzi" fill="#ffffff" stroke="#000000" transform="matrix(-0.7781,-0.5653,0.6104,-0.8402,1022.8667,607.7)" style="fill-opacity: 1; stroke-opacity: 1; stroke-width: 1;"> 
	   <g class="BoundaryPolygon" fill="none" stroke="none"> 
		    <polygon points="0,0 150,0 150,150 0,150"/>
		</g>
        <g class="InnerPolygon">
            <path d="M.5,150.5V.5h150C150.5,102.75,102.755,150.5.5,150.5Z"/>
        </g>
	    <g class="Tub">
            <path d="M20.445,57.769C13.482,23.421,5.076,27.7,11.044,21.744L23.179,9.434c3.979-3.971,6.664,6.254,34.416,11.218" fill="#fff" stroke="#000"/>
            <path d="M21.442,55.894C15.275,25.318,7.363,27.6,12.635,22.241l10.842-10.92c3.581-3.574,7.56,6.155,32.328,10.523" fill="#fff" stroke="#000"/>
            <path d="M110.6,109.384c-26.608,26.187-64.92,31.1-85.369,10.942S9.712,62.545,36.32,36.355s64.92-31.1,85.369-10.938S137.21,83.194,110.6,109.384Z" fill="#fff" stroke="#000"/>
            <path d="M103.451,102.353c-21.485,21.145-52.42,25.116-68.932,8.835s-12.533-46.658,8.952-67.8S95.891,18.27,112.4,34.55,124.936,81.208,103.451,102.353Z" fill="#fff" stroke="#000"/>
            <path d="M77.39,77.138a2.044,2.044,0,0,1-2.885,0,1.916,1.916,0,0,1-.067-2.713q.033-.034.067-.067a2.044,2.044,0,0,1,2.885,0,1.916,1.916,0,0,1,.067,2.713Q77.424,77.105,77.39,77.138Z" fill="#fff" stroke="#000"/>
		</g>
        <desc>Width:150 Height:62 Depth:150 Elevation:0</desc>
	</g><g class="FixedFurniture Shower" fill="#ffffff" stroke="#000000" transform="matrix(-0.6157,0.788,-0.788,-0.6157,1084.0385,523.3457)" style="fill-opacity: 1; stroke-opacity: 1; stroke-width: 1;"> 
	    <g class="BoundaryPolygon" fill="none" stroke="none">
            <polygon points="0,0 32,0 32,19 0,19"/>
        </g>
        <g class="InnerPolygon"> 
			<rect x="3.7" y="0.5" width="11.2" height="6.1"/>
			<rect x="17.6" y="0.5" width="11.2" height="6.1"/>
			<rect x="28.7" y="0.5" width="3.4" height="6.1"/>
			<rect x="0.5" y="0.5" width="3.2" height="6.1"/>
			<path d="M14.9,8.5c0,1.5-0.4,3.3-1.6,5    c-0.4,0.6-1,1.1-1.1,1.7c-0.2,1.1,0.3,2.8,2.5,3.2c0.5,0.1,1.3,0.1,1.6,0.1h-0.1c0.3,0,1.1,0,1.6-0.1c2.2-0.4,2.7-2.1,2.5-3.2    c-0.1-0.6-0.7-1.1-1.1-1.7c-1.2-1.7-1.6-3.5-1.6-5"/>
			<path d="M12.2,15.3c0.1,0.2,1.6,1.9,4.2,1.9 c2.4-0.1,3.7-1.7,3.9-1.9"/>
			<path d="M14.9,0.5h2.7v8c-0.9,0-1.8,0-2.7,0l0,0 C14.9,5.9,14.9,3.2,14.9,0.5z"/>
		</g>
	    <g class="Indicator"> 
			<path d="M3.7,3.6C5,3.1,5.2,3,5.2,3 c0,1.1,0,0,0,1.1C5.2,4.1,5.1,4.1,3.7,3.6"/>
			<path d="M28.7,3.6 C27.4,3.1,27.2,3,27.2,3c0,1.1,0,0,0,1.1C27.2,4.1,27.3,4.1,28.7,3.6"/>	
		</g>
        <desc>Width:32 Height:97 Depth:19 Elevation:135</desc>
	</g><g transform="matrix(1,0,0,1,1059.9067,438.0607)" class="FixedFurniture BaseCabinet" fill="#ffffff" stroke="#000000" style="fill-opacity: 1; stroke-opacity: 1; stroke-width: 1;"><desc>Width:60 Height:90 Depth:60 Elevation:0</desc><g class="BoundaryPolygon"><polygon points="0.00,0.00 -4.02,12.45 7.61,16.58 15.85,19.86 21.42,22.84 31.57,27.95 40.27,33.53 47.68,38.03 54.83,43.19 85.07,-0.21 0.00,0.00 "/></g></g><g class="FixedFurniture Toilet" fill="#ffffff" stroke="#000000" transform="matrix(-0.69,-0.5013,0.5275,-0.726,845.558,474.4223)" style="fill-opacity: 1; stroke-opacity: 1; stroke-width: 1;">
	   <g class="BoundaryPolygon" fill="none" stroke="none"> 
            <polygon points="0,0 41,0 41,71 0,71"/>
		</g>
        <g class="InnerPolygon">
            <rect x="0.502" y="0.5" width="39.989" height="17.98"/>
            <path d="M40.491,44.237S41.619,70.5,20.907,70.5C-.523,70.5.6,44.237.6,44.237L.5,18.48H40.491Z"/>
            <rect x="17.318" y="7.975" width="6.357" height="3.03"/>
        </g>
        <desc>Width:41 Height:85 Depth:71 Elevation:0</desc>
    </g><g transform="matrix(1,0,0,1,766.4386,671.1385)" class="FixedFurniture BaseCabinet" fill="#ffffff" stroke="#000000" style="fill-opacity: 1; stroke-opacity: 1; stroke-width: 1;"><desc>Width:60 Height:90 Depth:60 Elevation:0</desc><g class="BoundaryPolygon"><polygon points="0.00,0.00 -60.25,0.00 -60.25,110.98 -297.05,110.98 -297.05,170.08 -29.41,170.08 -29.41,110.98 0.17,110.98 0.00,0.00 "/></g></g><g class="FixedFurniture DoubleSink" fill="#ffffff" stroke="#000000" transform="matrix(-1,0,0,-1,605.4617,843.529)" style="fill-opacity: 1; stroke-opacity: 1; stroke-width: 1;">
        <g class="BoundaryPolygon" fill="none" stroke="none">
            <polygon points="0.00,0.00 75.15,0.00 75.15,60.00 0.00,60.00 "/>
        </g>
        <g class="InnerPolygonLeft">
            <polygon points="5.37,9.90 35.97,9.90 35.97,54.90 5.37,54.90 "/>
        </g>
        <g class="InnerPolygonRight">
            <polygon points="39.19,10.00 69.78,10.00 69.78,55.00 39.19,55.00 "/>
        </g>
        <g class="OuterDrain" stroke-width="0.8">
            <circle cx="21.14993908106778" cy="32.5" r="3.5"/>
            <circle cx="53.89476862282246" cy="32.5" r="3.5"/>
        </g>
        <g class="InnerDrain" stroke-width="0.8">
            <circle cx="21.14993908106778" cy="32.5" r="2"/>
            <circle cx="53.89476862282246" cy="32.5" r="2"/>
        </g>
        <g class="Faucet">
            <polygon points="34.36,4.90 40.36,4.90 40.36,18.90 34.36,18.90 "/>
        </g>
        <g class="Direction" fill-opacity="0.9" style="display: none;">
            <polygon points="39.20,54.70 39.20,44.08 36.19,44.08 36.19,54.70 32.38,54.70 37.69,60.00 42.99,54.70 39.20,54.70 " fill="#444444"/>
        </g> 
        <g class="Name" fill-opacity="0.9" style="display: none;">
            <text transform="translate(3 12)" font-size="12" font-family="Verdana, Sans-Serif">DSINK</text>
        </g>
        <desc>Width:70 Height:90 Depth:60 Elevation:0</desc>
    </g><g class="FixedFurniture ElectricalAppliance IntegratedStove" fill="#ffffff" stroke="#000000" transform="matrix(-1,0,0,-1,690.2533,842.37)" style="fill-opacity: 1; stroke-opacity: 1; stroke-width: 1;">
        <g class="BoundaryPolygon" fill="none" stroke="none">
            <polygon points="0.00,0.00 47.27,0.00 47.27,61.72 0.00,61.72 "/>
        </g>
        <g class="InnerPolygon">
            <polygon points="2.00,2.00 45.70,2.00 45.70,59.66 2.00,59.66 "/>
        </g>
        <g class="OuterCircle">
            <circle cx="12.606528241016457" cy="16.457842352509456" r="8"/>
            <circle cx="34.66795266279526" cy="16.457842352509456" r="8"/>
            <circle cx="12.606528241016457" cy="45.25906646940101" r="8"/>
            <circle cx="34.66795266279526" cy="45.25906646940101" r="8"/>
        </g>
        <g class="Direction" fill-opacity="0.9" style="display: none;">
            <polygon points="25.22,56.78 25.22,46.16 22.21,46.16 22.21,56.78 18.41,56.78 23.71,61.58 29.01,56.78 25.22,56.78 " fill="#444444"/>
        </g> 
        <g class="Name" fill-opacity="0.9" style="display: none;">
            <text transform="translate(3 12)" font-size="12" font-family="Verdana, Sans-Serif">INT_STOVE</text>
        </g>
        <desc>Width:60 Height:90 Depth:30 Elevation:0</desc>
    </g><g class="FixedFurniture WallCabinet" fill="#ffffff" stroke="#000000" transform="matrix(-1,0,0,-1,737.2396,840.8945)" style="fill-opacity: 0.7; stroke-opacity: 1; stroke-width: 1.5;">	
        <g class="BoundaryPolygon">
            <polygon points="0.00,0.00 267.67,0.00 267.67,32.65 0.00,32.65 "/>
        </g>
        <g class="Direction" fill-opacity="0.9" style="display: none;">
            <polygon points="142.80,27.42 142.80,16.81 139.79,16.81 139.79,27.42 135.98,27.42 141.29,32.23 146.59,27.42 142.80,27.42 " fill="#444444"/>
        </g> 
        <g class="Name" fill-opacity="0.9" style="display: none;">
            <text transform="translate(3 12)" font-size="12" font-family="Verdana, Sans-Serif">UC</text>
        </g>
        <desc>Width:60 Height:60 Depth:30 Elevation:140</desc>
    </g><g class="FixedFurniture Closet" fill="#ffffff" stroke="#000000" transform="matrix(-1,0,0,-1,836.9251,841.0508)" style="fill-opacity: 1; stroke-opacity: 1; stroke-width: 1;">
        <g class="BoundaryPolygon">
            <polygon points="0.00,0.00 56.10,0.00 56.10,60.00 0.00,60.00 "/>
        </g>
        <g class="Direction" fill-opacity="0.9" style="display: none;">
            <polygon points="29.46,54.70 29.46,44.08 26.45,44.08 26.45,54.70 22.65,54.70 27.95,60.00 33.26,54.70 29.46,54.70 " fill="#444444"/>
        </g> 
        <g class="Name" fill-opacity="0.9" style="display: none;">
            <text transform="translate(3 12)" font-size="12" font-family="Verdana, Sans-Serif">CL</text>
        </g>
        <desc>Width:60 Height:200 Depth:60 Elevation:0</desc>
     </g><g class="FixedFurniture CoatRack" fill="#ffffff" stroke="#000000" transform="matrix(-1,0,0,-1,962.7851,841.0507)" style="fill-opacity: 1; stroke-opacity: 1; stroke-width: 1;">
	   <g class="BoundaryPolygon"> 
		    <polygon points="0.00,0.00 125.86,0.00 125.86,28.18 0.00,28.18 "/>
		</g>	
	    <g class="Bar" stroke-width="0.65"> 
		    <line x1="0" y1="3.9457566216424187" x2="125.85755861408624" y2="3.9457566216424187"/>
            <line x1="0" y1="7.42178031213693" x2="125.85755861408624" y2="7.42178031213693"/>
            <line x1="0" y1="10.803857416401865" x2="125.85755861408624" y2="10.803857416401865"/>
            <line x1="0" y1="14.09198793443721" x2="125.85755861408624" y2="14.09198793443721"/>
            <line x1="0" y1="17.474065038702143" x2="125.85755861408624" y2="17.474065038702143"/>
            <line x1="0" y1="20.856142142967077" x2="125.85755861408624" y2="20.856142142967077"/>
            <line x1="0" y1="24.33216583346158" x2="125.85755861408624" y2="24.33216583346158"/>
		</g>
        <g class="Direction" fill-opacity="0.9" style="display: none;">
            <polygon points="65.04,23.20 65.04,12.59 62.03,12.59 62.03,23.20 58.23,23.20 63.53,28.50 68.83,23.20 65.04,23.20 " fill="#444444"/>
        </g> 
        <g class="Name" fill-opacity="0.9" style="display: none;">
            <text transform="translate(3 12)" font-size="12" font-family="Verdana, Sans-Serif">COATRACK</text>
        </g>
        <desc>Width:90 Height:30 Depth:30 Elevation:160</desc>
	</g><g id="FixedFurnitureSet" transform="matrix(-1,0,0,-1,1312.1108,841.0195)" class="FixedFurnitureSet" fill="#ffffff" stroke="#fc0fc0" style="fill-opacity: 0.4; stroke-opacity: 0.9; stroke-width: 1.5;"><g class="FixedFurniture Closet" fill="#ffffff" stroke="#000000" transform="matrix(1,0,0,1,0,0)" style="fill-opacity: 1; stroke-opacity: 1; stroke-width: 1;">
        <g class="BoundaryPolygon">
            <polygon points="0.00,0.00 59.65,0.00 59.65,60.00 0.00,60.00 "/>
        </g>
        <g class="Direction" fill-opacity="0.9" style="display: none;">
            <polygon points="31.32,54.70 31.32,44.08 28.32,44.08 28.32,54.70 24.51,54.70 29.82,60.00 35.12,54.70 31.32,54.70 " fill="#444444"/>
        </g> 
        <g class="Name" fill-opacity="0.9" style="display: none;">
            <text transform="translate(3 12)" font-size="12" font-family="Verdana, Sans-Serif">CL</text>
        </g>
        <desc>Width:60 Height:200 Depth:60 Elevation:0</desc>
    </g><g class="FixedFurniture Closet" fill="#ffffff" stroke="#000000" transform="matrix(1,0,0,1,59.6488,0)" style="fill-opacity: 1; stroke-opacity: 1; stroke-width: 1;">
        <g class="BoundaryPolygon">
            <polygon points="0.00,0.00 59.65,0.00 59.65,60.00 0.00,60.00 "/>
        </g>
        <g class="Direction" fill-opacity="0.9" style="display: none;">
            <polygon points="31.32,54.70 31.32,44.08 28.32,44.08 28.32,54.70 24.51,54.70 29.82,60.00 35.12,54.70 31.32,54.70 " fill="#444444"/>
        </g> 
        <g class="Name" fill-opacity="0.9" style="display: none;">
            <text transform="translate(3 12)" font-size="12" font-family="Verdana, Sans-Serif">CL</text>
        </g>
        <desc>Width:60 Height:200 Depth:60 Elevation:0</desc>
    </g><g class="FixedFurniture Closet" fill="#ffffff" stroke="#000000" transform="matrix(1,0,0,1,119.2977,0)" style="fill-opacity: 1; stroke-opacity: 1; stroke-width: 1;">
        <g class="BoundaryPolygon">
            <polygon points="0.00,0.00 59.65,0.00 59.65,60.00 0.00,60.00 "/>
        </g>
        <g class="Direction" fill-opacity="0.9" style="display: none;">
            <polygon points="31.32,54.70 31.32,44.08 28.32,44.08 28.32,54.70 24.51,54.70 29.82,60.00 35.12,54.70 31.32,54.70 " fill="#444444"/>
        </g> 
        <g class="Name" fill-opacity="0.9" style="display: none;">
            <text transform="translate(3 12)" font-size="12" font-family="Verdana, Sans-Serif">CL</text>
        </g>
        <desc>Width:60 Height:200 Depth:60 Elevation:0</desc>
    </g><g class="FixedFurniture Closet" fill="#ffffff" stroke="#000000" transform="matrix(1,0,0,1,178.9465,0)" style="fill-opacity: 1; stroke-opacity: 1; stroke-width: 1;">
        <g class="BoundaryPolygon">
            <polygon points="0.00,0.00 59.65,0.00 59.65,60.00 0.00,60.00 "/>
        </g>
        <g class="Direction" fill-opacity="0.9" style="display: none;">
            <polygon points="31.32,54.70 31.32,44.08 28.32,44.08 28.32,54.70 24.51,54.70 29.82,60.00 35.12,54.70 31.32,54.70 " fill="#444444"/>
        </g> 
        <g class="Name" fill-opacity="0.9" style="display: none;">
            <text transform="translate(3 12)" font-size="12" font-family="Verdana, Sans-Serif">CL</text>
        </g>
        <desc>Width:60 Height:200 Depth:60 Elevation:0</desc>
    </g></g></g></g></g></svg>